<?xml version="1.0" encoding="UTF-8" standalone="no"?>
<!-- Created with Inkscape (http://www.inkscape.org/) -->

<svg
   version="1.1"
   id="svg2"
   xml:space="preserve"
   width="370.46399"
   height="175.50717"
   viewBox="0 0 370.46399 175.50717"
   sodipodi:docname="drive_backdrive_experiment.svg"
   inkscape:version="1.1.2 (0a00cf5339, 2022-02-04)"
   xmlns:inkscape="http://www.inkscape.org/namespaces/inkscape"
   xmlns:sodipodi="http://sodipodi.sourceforge.net/DTD/sodipodi-0.dtd"
   xmlns="http://www.w3.org/2000/svg"
   xmlns:svg="http://www.w3.org/2000/svg"><defs
     id="defs6" /><sodipodi:namedview
     id="namedview4"
     pagecolor="#ffffff"
     bordercolor="#666666"
     borderopacity="1.0"
     inkscape:pageshadow="2"
     inkscape:pageopacity="0.0"
     inkscape:pagecheckerboard="0"
     showgrid="false"
     inkscape:zoom="1.7275633"
     inkscape:cx="169.31362"
     inkscape:cy="55.859023"
     inkscape:window-width="1920"
     inkscape:window-height="1021"
     inkscape:window-x="0"
     inkscape:window-y="25"
     inkscape:window-maximized="1"
     inkscape:current-layer="g8" /><g
     id="g8"
     inkscape:groupmode="layer"
     inkscape:label="drive_backdrive_experiment"
     transform="matrix(1.3333333,0,0,1.3333333,0,2.3876793e-6)"><g
       id="g10"><g
         id="g12"><path
           d="M 138.516,5.773 V 130.957"
           style="fill:none;stroke:#000000;stroke-width:0.755203;stroke-linecap:butt;stroke-linejoin:miter;stroke-miterlimit:4;stroke-dasharray:0.755203, 0.755203;stroke-dashoffset:0;stroke-opacity:1"
           id="path14" /></g><g
         id="g16"><path
           d="M 277.848,131.273 H 0"
           style="fill:none;stroke:#000000;stroke-width:0.710802;stroke-linecap:butt;stroke-linejoin:miter;stroke-miterlimit:4;stroke-dasharray:0.710802, 0.710802;stroke-dashoffset:0;stroke-opacity:1"
           id="path18" /></g><path
         d="M 63.164,8.957 H 78.32 V 88.766 H 63.164 Z"
         style="fill:#dcd2b4;fill-opacity:1;fill-rule:nonzero;stroke:none"
         id="path20" /><path
         d="m 33.367,88.348 h 77.184 V 98.524 H 33.367 Z"
         style="fill:#757181;fill-opacity:1;fill-rule:nonzero;stroke:none"
         id="path22" /><g
         id="g24"><path
           d="m 70.625,19.449 v 68.66"
           style="fill:none;stroke:#000000;stroke-width:0.751181;stroke-linecap:butt;stroke-linejoin:miter;stroke-miterlimit:4;stroke-dasharray:0.751181, 0.751181;stroke-dashoffset:0;stroke-opacity:1"
           id="path26" /></g><path
         d="m 64.453,18.465 6.649,-5.668 37.589,44.082 -6.652,5.672 z"
         style="fill:#baa66b;fill-opacity:1;fill-rule:nonzero;stroke:none"
         id="path28" /><path
         d="m 120.684,57.832 c 0,9.594 -7.778,17.367 -17.368,17.367 -9.593,0 -17.367,-7.773 -17.367,-17.367 0,-9.59 7.774,-17.367 17.367,-17.367 9.59,0 17.368,7.777 17.368,17.367 z"
         style="fill:#201d29;fill-opacity:1;fill-rule:nonzero;stroke:none"
         id="path30" /><path
         d="m 116.836,57.867 c 0,7.356 -5.965,13.317 -13.32,13.317 -7.356,0 -13.321,-5.961 -13.321,-13.317 0,-7.355 5.965,-13.32 13.321,-13.32 7.355,0 13.32,5.965 13.32,13.32 z"
         style="fill:#7c7c7c;fill-opacity:1;fill-rule:nonzero;stroke:none"
         id="path32" /><path
         d="m 72.09,19.328 c 0,0.785 -0.637,1.426 -1.422,1.426 -0.789,0 -1.426,-0.641 -1.426,-1.426 0,-0.781 0.637,-1.426 1.426,-1.426 0.785,0 1.422,0.645 1.422,1.426 z"
         style="fill:#dcd2b4;fill-opacity:1;fill-rule:nonzero;stroke:none"
         id="path34" /><g
         id="g36"><path
           d="m 70.625,19.449 33.52,39.106"
           style="fill:none;stroke:#000000;stroke-width:0.751181;stroke-linecap:butt;stroke-linejoin:miter;stroke-miterlimit:4;stroke-dasharray:0.751181, 0.751181;stroke-dashoffset:0;stroke-opacity:1"
           id="path38" /></g><g
         id="g40"><path
           d="m 73.871,51.469 c 0,0 7.938,-1.86 12.762,-7.742"
           style="fill:none;stroke:#000000;stroke-width:0.6;stroke-linecap:round;stroke-linejoin:miter;stroke-miterlimit:4;stroke-dasharray:none;stroke-opacity:1"
           id="path42" /></g><g
         id="g44"><path
           d="m 82.406,45.25 5.395,-2.602 -2.422,5.477 C 85.125,46.629 83.922,45.473 82.406,45.25 Z"
           style="fill:#000000;fill-opacity:1;fill-rule:evenodd;stroke:#000000;stroke-width:0.321555;stroke-linecap:butt;stroke-linejoin:round;stroke-miterlimit:4;stroke-dasharray:none;stroke-opacity:1"
           id="path46" /></g><path
         d="m 117.105,44.051 c -0.031,0.148 -0.089,0.379 -0.089,0.422 0,0.168 0.136,0.257 0.289,0.257 0.121,0 0.285,-0.074 0.363,-0.273 0,-0.016 0.121,-0.469 0.18,-0.711 l 0.211,-0.863 c 0.046,-0.227 0.105,-0.438 0.168,-0.649 0.031,-0.168 0.105,-0.457 0.121,-0.48 0.136,-0.309 0.652,-1.184 1.574,-1.184 0.437,0 0.516,0.364 0.516,0.684 0,0.238 -0.063,0.512 -0.137,0.797 l -0.274,1.121 -0.195,0.726 c -0.031,0.196 -0.121,0.532 -0.121,0.575 0,0.168 0.137,0.257 0.269,0.257 0.305,0 0.364,-0.242 0.442,-0.542 0.137,-0.547 0.5,-1.954 0.574,-2.333 0.031,-0.121 0.543,-1.285 1.606,-1.285 0.406,0 0.511,0.332 0.511,0.684 0,0.543 -0.406,1.644 -0.605,2.16 -0.074,0.227 -0.121,0.332 -0.121,0.531 0,0.453 0.336,0.785 0.789,0.785 0.906,0 1.269,-1.406 1.269,-1.484 0,-0.105 -0.09,-0.105 -0.121,-0.105 -0.09,0 -0.09,0.031 -0.133,0.183 -0.152,0.512 -0.457,1.196 -0.984,1.196 -0.168,0 -0.242,-0.09 -0.242,-0.321 0,-0.242 0.09,-0.469 0.18,-0.679 0.183,-0.516 0.589,-1.575 0.589,-2.133 0,-0.621 -0.39,-1.032 -1.117,-1.032 -0.715,0 -1.211,0.426 -1.574,0.942 0,-0.125 -0.031,-0.457 -0.305,-0.684 -0.242,-0.211 -0.543,-0.258 -0.785,-0.258 -0.879,0 -1.348,0.622 -1.515,0.848 -0.043,-0.558 -0.454,-0.848 -0.891,-0.848 -0.442,0 -0.621,0.379 -0.715,0.547 -0.164,0.352 -0.285,0.907 -0.285,0.938 0,0.105 0.09,0.105 0.105,0.105 0.106,0 0.106,-0.015 0.168,-0.226 0.164,-0.68 0.364,-1.149 0.711,-1.149 0.149,0 0.285,0.075 0.285,0.438 0,0.211 -0.027,0.316 -0.148,0.816 z"
         style="fill:#000000;fill-opacity:1;fill-rule:nonzero;stroke:none"
         id="path48" /><path
         d="m 88.934,22.969 c 0,0 0,-0.106 -0.137,-0.106 -0.211,0 -0.922,0.075 -1.18,0.106 -0.074,0 -0.179,0.015 -0.179,0.195 0,0.106 0.105,0.106 0.242,0.106 0.468,0 0.484,0.093 0.484,0.168 l -0.031,0.195 -1.227,4.832 c -0.031,0.105 -0.047,0.164 -0.047,0.316 0,0.559 0.426,0.895 0.879,0.895 0.317,0 0.559,-0.199 0.727,-0.547 0.168,-0.363 0.289,-0.922 0.289,-0.938 0,-0.105 -0.094,-0.105 -0.121,-0.105 -0.094,0 -0.106,0.043 -0.121,0.18 -0.168,0.621 -0.348,1.199 -0.742,1.199 -0.29,0 -0.29,-0.305 -0.29,-0.442 0,-0.242 0.016,-0.289 0.063,-0.468 z"
         style="fill:#000000;fill-opacity:1;fill-rule:nonzero;stroke:none"
         id="path50" /><path
         d="m 80.738,53.141 c 0,-0.637 -0.168,-1.985 -1.152,-1.985 -1.348,0 -2.828,2.727 -2.828,4.938 0,0.91 0.269,1.98 1.148,1.98 1.364,0 2.832,-2.769 2.832,-4.933 z m -2.968,1.316 c 0.168,-0.605 0.363,-1.375 0.757,-2.074 0.258,-0.469 0.606,-1.012 1.043,-1.012 0.473,0 0.532,0.621 0.532,1.164 0,0.485 -0.075,0.969 -0.301,1.922 z m 1.937,0.316 c -0.105,0.442 -0.301,1.258 -0.68,1.954 -0.332,0.668 -0.695,1.136 -1.121,1.136 -0.316,0 -0.515,-0.289 -0.515,-1.179 0,-0.411 0.062,-0.969 0.304,-1.911 z"
         style="fill:#000000;fill-opacity:1;fill-rule:nonzero;stroke:none"
         id="path52" /><path
         d="m 82.785,54.938 c 0,-0.016 0.031,-0.106 0.031,-0.106 0,-0.047 -0.031,-0.109 -0.121,-0.109 -0.136,0 -0.695,0.062 -0.863,0.078 -0.047,0 -0.137,0.015 -0.137,0.152 0,0.094 0.09,0.094 0.168,0.094 0.332,0 0.332,0.055 0.332,0.101 0,0.047 -0.015,0.09 -0.031,0.153 l -0.848,3.328 c -0.015,0.074 -0.015,0.152 -0.015,0.211 0,0.441 0.379,0.637 0.699,0.637 0.164,0 0.379,-0.047 0.543,-0.348 0.152,-0.258 0.242,-0.652 0.242,-0.68 0,-0.094 -0.09,-0.094 -0.105,-0.094 -0.106,0 -0.121,0.047 -0.137,0.168 -0.09,0.332 -0.227,0.774 -0.516,0.774 -0.179,0 -0.226,-0.168 -0.226,-0.332 0,-0.078 0.015,-0.199 0.047,-0.274 z"
         style="fill:#000000;fill-opacity:1;fill-rule:nonzero;stroke:none"
         id="path54" /><text
         transform="translate(16.72594,110.38508)"
         style="font-variant:normal;font-weight:normal;font-size:7.99999px;font-family:'DejaVu Sans';-inkscape-font-specification:DejaVuSans;writing-mode:lr-tb;fill:#000000;fill-opacity:1;fill-rule:nonzero;stroke:none"
         id="text58"><tspan
           x="0 4.3119946 9.1999884 15.73598 20.655973 24.791969 27.927965 30.463963 35.383957 40.455948 45.495945 47.711941 49.927937 52.143936 57.191929 60.479923 62.695923 67.759918 75.551903 78.063904 83.135895 88.023888 92.183884 94.375885 97.511879 99.727875 104.61587"
           y="0"
           sodipodi:role="line"
           id="tspan56">Lowest equilibrium position</tspan></text><path
         d="m 198.848,8.957 h 15.156 v 79.809 h -15.156 z"
         style="fill:#dcd2b4;fill-opacity:1;fill-rule:nonzero;stroke:none"
         id="path60" /><path
         d="m 169.051,88.348 h 77.184 v 10.176 h -77.184 z"
         style="fill:#757181;fill-opacity:1;fill-rule:nonzero;stroke:none"
         id="path62" /><g
         id="g64"><path
           d="M 206.309,19.449 V 88.215"
           style="fill:none;stroke:#000000;stroke-width:0.751181;stroke-linecap:butt;stroke-linejoin:miter;stroke-miterlimit:4;stroke-dasharray:0.751181, 0.751181;stroke-dashoffset:0;stroke-opacity:1"
           id="path66" /></g><path
         d="m 200.539,21.965 2.625,-8.336 55.258,17.402 -2.625,8.336 z"
         style="fill:#baa66b;fill-opacity:1;fill-rule:nonzero;stroke:none"
         id="path68" /><path
         d="m 269.094,25.473 c 5.094,8.125 2.633,18.843 -5.496,23.937 -8.129,5.094 -18.848,2.637 -23.938,-5.496 -5.094,-8.129 -2.633,-18.848 5.496,-23.937 8.129,-5.094 18.844,-2.633 23.938,5.496 z"
         style="fill:#201d29;fill-opacity:1;fill-rule:nonzero;stroke:none"
         id="path70" /><path
         d="m 265.852,27.547 c 3.902,6.23 2.015,14.449 -4.219,18.355 -6.231,3.907 -14.449,2.02 -18.356,-4.214 -3.906,-6.235 -2.019,-14.454 4.215,-18.36 6.235,-3.906 14.453,-2.019 18.36,4.219 z"
         style="fill:#7c7c7c;fill-opacity:1;fill-rule:nonzero;stroke:none"
         id="path72" /><path
         d="m 207.773,19.328 c 0,0.785 -0.636,1.426 -1.421,1.426 -0.786,0 -1.426,-0.641 -1.426,-1.426 0,-0.781 0.64,-1.426 1.426,-1.426 0.785,0 1.421,0.645 1.421,1.426 z"
         style="fill:#dcd2b4;fill-opacity:1;fill-rule:nonzero;stroke:none"
         id="path74" /><g
         id="g76"><path
           d="m 206.309,19.449 49.05,16.063"
           style="fill:none;stroke:#000000;stroke-width:0.751181;stroke-linecap:butt;stroke-linejoin:miter;stroke-miterlimit:4;stroke-dasharray:0.751181, 0.751181;stroke-dashoffset:0;stroke-opacity:1"
           id="path78" /></g><g
         id="g80"><path
           d="m 209.297,44.652 c 0,0 12.973,-1.925 18.828,-15.91"
           style="fill:none;stroke:#000000;stroke-width:0.467717;stroke-linecap:butt;stroke-linejoin:miter;stroke-miterlimit:4;stroke-dasharray:none;stroke-opacity:1"
           id="path82" /></g><g
         id="g84"><path
           d="m 224.164,31.91 4.473,-3.984 -0.825,5.929 c -0.652,-1.367 -2.128,-2.148 -3.648,-1.945 z"
           style="fill:#000000;fill-opacity:1;fill-rule:evenodd;stroke:#000000;stroke-width:0.321555;stroke-linecap:butt;stroke-linejoin:round;stroke-miterlimit:4;stroke-dasharray:none;stroke-opacity:1"
           id="path86" /></g><path
         d="m 224.246,41.926 c 0,-0.637 -0.168,-1.985 -1.152,-1.985 -1.344,0 -2.828,2.723 -2.828,4.938 0,0.906 0.273,1.98 1.148,1.98 1.363,0 2.832,-2.769 2.832,-4.933 z m -2.965,1.316 c 0.164,-0.605 0.364,-1.379 0.754,-2.07 0.258,-0.473 0.606,-1.02 1.047,-1.02 0.469,0 0.527,0.621 0.527,1.168 0,0.485 -0.074,0.969 -0.3,1.922 z m 1.934,0.317 c -0.106,0.437 -0.301,1.257 -0.68,1.953 -0.332,0.664 -0.695,1.133 -1.121,1.133 -0.316,0 -0.512,-0.286 -0.512,-1.18 0,-0.406 0.059,-0.969 0.301,-1.906 z"
         style="fill:#000000;fill-opacity:1;fill-rule:nonzero;stroke:none"
         id="path88" /><path
         d="m 226.508,43.719 c 0,-0.016 0.012,-0.106 0.012,-0.106 0,-0.047 -0.012,-0.105 -0.106,-0.105 -0.137,0 -0.695,0.058 -0.863,0.074 -0.043,0 -0.149,0.016 -0.149,0.152 0,0.09 0.106,0.09 0.18,0.09 0.32,0 0.32,0.063 0.32,0.106 0,0.047 -0.015,0.093 -0.015,0.152 l -0.953,3.816 c -0.047,0.122 -0.047,0.133 -0.047,0.149 0,0.105 0.09,0.215 0.242,0.215 0.074,0 0.195,-0.032 0.273,-0.168 0.016,-0.047 0.075,-0.289 0.106,-0.422 l 0.164,-0.606 c 0.016,-0.109 0.094,-0.363 0.109,-0.457 0.059,-0.257 0.059,-0.269 0.196,-0.48 0.226,-0.332 0.558,-0.715 1.089,-0.715 0.379,0 0.395,0.305 0.395,0.469 0,0.414 -0.289,1.152 -0.395,1.437 -0.074,0.2 -0.105,0.258 -0.105,0.364 0,0.363 0.301,0.578 0.637,0.578 0.679,0 0.98,-0.926 0.98,-1.032 0,-0.089 -0.09,-0.089 -0.121,-0.089 -0.09,0 -0.09,0.047 -0.121,0.121 -0.148,0.543 -0.453,0.816 -0.711,0.816 -0.148,0 -0.18,-0.09 -0.18,-0.242 0,-0.152 0.043,-0.242 0.164,-0.539 0.079,-0.219 0.352,-0.93 0.352,-1.309 0,-0.105 0,-0.39 -0.242,-0.59 -0.121,-0.074 -0.321,-0.179 -0.637,-0.179 -0.484,0 -0.848,0.273 -1.09,0.558 z"
         style="fill:#000000;fill-opacity:1;fill-rule:nonzero;stroke:none"
         id="path90" /><text
         transform="translate(154.88678,110.38508)"
         style="font-variant:normal;font-weight:normal;font-size:7.99999px;font-family:'DejaVu Sans';-inkscape-font-specification:DejaVuSans;writing-mode:lr-tb;fill:#000000;fill-opacity:1;fill-rule:nonzero;stroke:none"
         id="text94"><tspan
           x="0 6.0079923 8.2239895 13.271983 18.335978 23.25597 27.415966 30.551962 33.063957 37.983952 43.055946 48.119942 50.335938 52.527935 54.743931 59.815926 63.10392 65.295921 70.359909 78.151901 80.687897 85.759895 90.623886 94.783882 96.999878 100.13587 102.32787 107.21587"
           y="0"
           sodipodi:role="line"
           id="tspan92">Highest equilibrium position</tspan></text><g
         id="g96"
         transform="matrix(-0.364367,-1,1,-0.364367,0,0)"><path
           d="m -36.588,71.555 c 3.248,-0.058 6.467,-1.206 9.017,-3.218 2.549,-2.013 4.413,-4.877 5.22,-8.024 0.76,-2.954 0.586,-6.142 -0.491,-8.999 -1.076,-2.857 -3.052,-5.366 -5.569,-7.088 -2.522,-1.72 -5.582,-2.639 -8.635,-2.599 -3.05,0.041 -6.083,1.041 -8.558,2.827"
           style="fill:none;stroke:#000000;stroke-width:0.563744;stroke-linecap:round;stroke-linejoin:miter;stroke-miterlimit:4;stroke-dasharray:none;stroke-opacity:0.8"
           id="path98" /></g><g
         id="g100"
         transform="matrix(1,0.678736,-0.678736,1,0,0)"><path
           d="m 57.337,-8.245 -2.791,1.613 10e-4,-3.227 z"
           style="fill:#000000;fill-opacity:1;fill-rule:evenodd;stroke:#000000;stroke-width:0.430254;stroke-linecap:butt;stroke-linejoin:miter;stroke-miterlimit:4;stroke-dasharray:none;stroke-opacity:1"
           id="path102" /></g><path
         d="m 43.172,4.852 h 1.672 c 0.125,0 0.484,0 0.484,-0.344 0,-0.235 -0.203,-0.235 -0.406,-0.235 h -2.781 c -0.203,0 -0.594,0 -1.032,0.469 -0.328,0.36 -0.609,0.844 -0.609,0.891 0,0.015 0,0.109 0.125,0.109 0.078,0 0.094,-0.047 0.156,-0.125 0.485,-0.765 1.063,-0.765 1.266,-0.765 h 0.828 l -0.969,3.203 c -0.047,0.109 -0.109,0.328 -0.109,0.359 0,0.109 0.078,0.281 0.297,0.281 0.328,0 0.375,-0.281 0.406,-0.437 z"
         style="fill:#000000;fill-opacity:1;fill-rule:nonzero;stroke:none"
         id="path104" /><path
         d="m 47.621,9.504 c -0.047,0.141 -0.109,0.375 -0.109,0.406 0,0.156 0.125,0.219 0.234,0.219 0.141,0 0.25,-0.078 0.281,-0.141 0.032,-0.062 0.094,-0.297 0.125,-0.437 0.032,-0.125 0.11,-0.453 0.157,-0.625 0.031,-0.156 0.078,-0.313 0.109,-0.469 0.078,-0.297 0.078,-0.312 0.219,-0.531 0.218,-0.344 0.578,-0.735 1.109,-0.735 0.391,0 0.422,0.313 0.422,0.485 0,0.422 -0.297,1.187 -0.422,1.484 -0.062,0.203 -0.094,0.266 -0.094,0.375 0,0.375 0.297,0.594 0.657,0.594 0.703,0 1,-0.953 1,-1.063 0,-0.093 -0.079,-0.093 -0.11,-0.093 -0.094,0 -0.094,0.047 -0.125,0.125 -0.156,0.562 -0.469,0.843 -0.734,0.843 -0.156,0 -0.188,-0.093 -0.188,-0.25 0,-0.156 0.047,-0.25 0.172,-0.562 0.078,-0.219 0.36,-0.953 0.36,-1.344 0,-0.109 0,-0.406 -0.25,-0.609 -0.125,-0.078 -0.329,-0.188 -0.657,-0.188 -0.625,0 -1,0.422 -1.234,0.703 -0.047,-0.593 -0.547,-0.703 -0.906,-0.703 -0.578,0 -0.969,0.36 -1.172,0.641 -0.047,-0.484 -0.453,-0.641 -0.75,-0.641 -0.297,0 -0.453,0.219 -0.547,0.375 -0.156,0.266 -0.25,0.657 -0.25,0.703 0,0.079 0.094,0.079 0.125,0.079 0.094,0 0.094,-0.016 0.141,-0.204 0.109,-0.406 0.25,-0.75 0.515,-0.75 0.188,0 0.235,0.157 0.235,0.344 0,0.125 -0.063,0.391 -0.125,0.578 -0.047,0.188 -0.11,0.469 -0.141,0.625 l -0.234,0.891 c -0.016,0.094 -0.063,0.266 -0.063,0.281 0,0.156 0.125,0.219 0.234,0.219 0.125,0 0.235,-0.078 0.282,-0.141 0.031,-0.062 0.078,-0.297 0.125,-0.437 0.031,-0.125 0.109,-0.453 0.14,-0.625 0.047,-0.156 0.094,-0.313 0.125,-0.469 0.078,-0.281 0.094,-0.344 0.297,-0.625 0.188,-0.281 0.516,-0.641 1.047,-0.641 0.391,0 0.406,0.36 0.406,0.485 0,0.172 -0.015,0.265 -0.125,0.656 z"
         style="fill:#000000;fill-opacity:1;fill-rule:nonzero;stroke:none"
         id="path106" /><path
         d="m 20.062,119.039 h 1.672 c 0.125,0 0.485,0 0.485,-0.344 0,-0.234 -0.203,-0.234 -0.407,-0.234 h -2.781 c -0.203,0 -0.593,0 -1.031,0.469 -0.328,0.359 -0.609,0.843 -0.609,0.89 0,0.016 0,0.11 0.125,0.11 0.078,0 0.093,-0.047 0.156,-0.125 0.484,-0.766 1.062,-0.766 1.266,-0.766 h 0.828 l -0.969,3.203 c -0.047,0.11 -0.109,0.328 -0.109,0.36 0,0.109 0.078,0.281 0.296,0.281 0.328,0 0.375,-0.281 0.407,-0.438 z"
         style="fill:#1f77b4;fill-opacity:1;fill-rule:nonzero;stroke:none"
         id="path108" /><path
         d="m 25.465,119.629 c 0,-0.016 0.015,-0.109 0.015,-0.109 0,-0.047 -0.015,-0.11 -0.109,-0.11 -0.141,0 -0.719,0.063 -0.891,0.078 -0.046,0 -0.156,0.016 -0.156,0.157 0,0.093 0.11,0.093 0.188,0.093 0.328,0 0.328,0.063 0.328,0.11 0,0.047 0,0.093 -0.016,0.156 l -0.406,1.594 c -0.141,-0.235 -0.375,-0.422 -0.719,-0.422 -0.89,0 -1.797,0.984 -1.797,1.984 0,0.688 0.453,1.156 1.063,1.156 0.375,0 0.703,-0.203 0.984,-0.484 0.125,0.422 0.531,0.484 0.719,0.484 0.25,0 0.422,-0.14 0.547,-0.359 0.156,-0.281 0.25,-0.672 0.25,-0.703 0,-0.094 -0.094,-0.094 -0.11,-0.094 -0.109,0 -0.109,0.031 -0.156,0.219 -0.094,0.344 -0.219,0.75 -0.515,0.75 -0.172,0 -0.235,-0.156 -0.235,-0.344 0,-0.125 0.016,-0.187 0.047,-0.281 z m -1.485,3.75 c -0.046,0.203 -0.203,0.344 -0.359,0.469 -0.062,0.062 -0.344,0.281 -0.641,0.281 -0.265,0 -0.515,-0.188 -0.515,-0.672 0,-0.375 0.203,-1.141 0.375,-1.422 0.312,-0.562 0.672,-0.656 0.859,-0.656 0.485,0 0.625,0.531 0.625,0.609 0,0.016 -0.015,0.078 -0.015,0.094 z"
         style="fill:#1f77b4;fill-opacity:1;fill-rule:nonzero;stroke:none"
         id="path110" /><path
         d="m 27.27,122.848 c 0,-0.047 0.171,-0.672 0.171,-0.703 0.016,-0.063 0.219,-0.407 0.454,-0.579 0.062,-0.046 0.25,-0.187 0.562,-0.187 0.063,0 0.234,0 0.375,0.094 -0.219,0.062 -0.297,0.265 -0.297,0.39 0,0.141 0.11,0.25 0.266,0.25 0.172,0 0.39,-0.125 0.39,-0.422 0,-0.359 -0.375,-0.515 -0.734,-0.515 -0.359,0 -0.672,0.156 -0.984,0.5 -0.125,-0.422 -0.547,-0.5 -0.719,-0.5 -0.25,0 -0.422,0.172 -0.547,0.359 -0.156,0.266 -0.25,0.672 -0.25,0.719 0,0.078 0.094,0.078 0.125,0.078 0.094,0 0.094,-0.016 0.141,-0.203 0.109,-0.422 0.25,-0.75 0.515,-0.75 0.188,0 0.235,0.156 0.235,0.344 0,0.125 -0.063,0.39 -0.125,0.578 -0.047,0.187 -0.11,0.469 -0.141,0.625 l -0.234,0.89 c -0.016,0.094 -0.063,0.266 -0.063,0.282 0,0.156 0.125,0.218 0.235,0.218 0.109,0 0.25,-0.062 0.296,-0.187 0.016,-0.047 0.094,-0.359 0.141,-0.531 z"
         style="fill:#1f77b4;fill-opacity:1;fill-rule:nonzero;stroke:none"
         id="path112" /><path
         d="m 31.809,119.895 c 0,-0.11 -0.094,-0.266 -0.282,-0.266 -0.187,0 -0.39,0.187 -0.39,0.391 0,0.109 0.078,0.265 0.281,0.265 0.187,0 0.391,-0.203 0.391,-0.39 z m -1.422,3.546 c -0.032,0.094 -0.063,0.172 -0.063,0.297 0,0.328 0.266,0.578 0.656,0.578 0.688,0 1,-0.953 1,-1.062 0,-0.094 -0.093,-0.094 -0.109,-0.094 -0.094,0 -0.109,0.047 -0.141,0.125 -0.156,0.563 -0.453,0.844 -0.734,0.844 -0.141,0 -0.172,-0.094 -0.172,-0.25 0,-0.156 0.047,-0.281 0.11,-0.438 0.078,-0.187 0.156,-0.375 0.218,-0.562 0.063,-0.172 0.328,-0.797 0.344,-0.891 0.031,-0.062 0.047,-0.14 0.047,-0.218 0,-0.329 -0.281,-0.594 -0.656,-0.594 -0.703,0 -1.016,0.953 -1.016,1.078 0,0.078 0.094,0.078 0.125,0.078 0.094,0 0.094,-0.031 0.125,-0.109 0.172,-0.594 0.484,-0.844 0.734,-0.844 0.11,0 0.172,0.047 0.172,0.234 0,0.172 -0.031,0.266 -0.203,0.703 z"
         style="fill:#1f77b4;fill-opacity:1;fill-rule:nonzero;stroke:none"
         id="path114" /><path
         d="m 36.082,121.723 c 0,-0.547 -0.328,-0.547 -0.344,-0.547 -0.187,0 -0.375,0.187 -0.375,0.375 0,0.109 0.063,0.172 0.11,0.203 0.125,0.109 0.265,0.281 0.265,0.562 0,0.313 -0.468,1.813 -1.297,1.813 -0.562,0 -0.562,-0.5 -0.562,-0.625 0,-0.313 0.125,-0.703 0.391,-1.359 0.046,-0.141 0.093,-0.25 0.093,-0.36 0,-0.375 -0.312,-0.609 -0.656,-0.609 -0.703,0 -1.016,0.953 -1.016,1.078 0,0.078 0.094,0.078 0.125,0.078 0.094,0 0.094,-0.031 0.125,-0.109 0.157,-0.563 0.454,-0.844 0.735,-0.844 0.125,0 0.172,0.078 0.172,0.234 0,0.172 -0.047,0.313 -0.125,0.469 -0.297,0.781 -0.375,1.078 -0.375,1.328 0,0.688 0.547,0.906 1.078,0.906 1.172,0 1.656,-2.015 1.656,-2.593 z"
         style="fill:#1f77b4;fill-opacity:1;fill-rule:nonzero;stroke:none"
         id="path116" /><path
         d="m 38.16,122.66 c 0.188,0 0.75,-0.015 1.125,-0.14 0.516,-0.188 0.61,-0.516 0.61,-0.719 0,-0.391 -0.391,-0.625 -0.86,-0.625 -0.844,0 -1.969,0.64 -1.969,1.844 0,0.703 0.438,1.296 1.25,1.296 1.188,0 1.735,-0.687 1.735,-0.781 0,-0.047 -0.063,-0.125 -0.125,-0.125 -0.031,0 -0.047,0.016 -0.11,0.078 -0.546,0.641 -1.359,0.641 -1.484,0.641 -0.422,0 -0.703,-0.281 -0.703,-0.844 0,-0.094 0,-0.234 0.094,-0.625 z m -0.39,-0.187 c 0.296,-1.016 1.062,-1.094 1.265,-1.094 0.297,0 0.563,0.156 0.563,0.422 0,0.672 -1.188,0.672 -1.485,0.672 z"
         style="fill:#1f77b4;fill-opacity:1;fill-rule:nonzero;stroke:none"
         id="path118" /><path
         d="m 44.172,125.148 c 0,-0.031 0,-0.046 -0.172,-0.218 -1.234,-1.25 -1.562,-3.141 -1.562,-4.672 0,-1.735 0.374,-3.469 1.609,-4.703 0.125,-0.125 0.125,-0.141 0.125,-0.172 0,-0.078 -0.031,-0.11 -0.094,-0.11 -0.109,0 -1,0.688 -1.594,1.954 -0.5,1.093 -0.625,2.203 -0.625,3.031 0,0.781 0.11,1.984 0.657,3.125 0.609,1.219 1.453,1.875 1.562,1.875 0.063,0 0.094,-0.031 0.094,-0.11 z"
         style="fill:#1f77b4;fill-opacity:1;fill-rule:nonzero;stroke:none"
         id="path120" /><path
         d="m 47.684,119.039 h 1.671 c 0.125,0 0.485,0 0.485,-0.344 0,-0.234 -0.203,-0.234 -0.406,-0.234 h -2.782 c -0.203,0 -0.593,0 -1.031,0.469 -0.328,0.359 -0.609,0.843 -0.609,0.89 0,0.016 0,0.11 0.125,0.11 0.078,0 0.093,-0.047 0.156,-0.125 0.484,-0.766 1.062,-0.766 1.266,-0.766 h 0.828 l -0.969,3.203 c -0.047,0.11 -0.109,0.328 -0.109,0.36 0,0.109 0.078,0.281 0.296,0.281 0.329,0 0.375,-0.281 0.407,-0.438 z"
         style="fill:#1f77b4;fill-opacity:1;fill-rule:nonzero;stroke:none"
         id="path122" /><path
         d="m 52.133,123.691 c -0.047,0.141 -0.11,0.375 -0.11,0.407 0,0.156 0.125,0.218 0.235,0.218 0.14,0 0.25,-0.078 0.281,-0.14 0.031,-0.063 0.094,-0.297 0.125,-0.438 0.031,-0.125 0.109,-0.453 0.156,-0.625 0.032,-0.156 0.078,-0.312 0.11,-0.468 0.078,-0.297 0.078,-0.313 0.218,-0.532 0.219,-0.343 0.579,-0.734 1.11,-0.734 0.39,0 0.422,0.312 0.422,0.484 0,0.422 -0.297,1.188 -0.422,1.485 -0.063,0.203 -0.094,0.265 -0.094,0.375 0,0.375 0.297,0.593 0.656,0.593 0.703,0 1,-0.953 1,-1.062 0,-0.094 -0.078,-0.094 -0.109,-0.094 -0.094,0 -0.094,0.047 -0.125,0.125 -0.156,0.563 -0.469,0.844 -0.734,0.844 -0.157,0 -0.188,-0.094 -0.188,-0.25 0,-0.156 0.047,-0.25 0.172,-0.563 0.078,-0.218 0.359,-0.953 0.359,-1.343 0,-0.11 0,-0.407 -0.25,-0.61 -0.125,-0.078 -0.328,-0.187 -0.656,-0.187 -0.625,0 -1,0.422 -1.234,0.703 -0.047,-0.594 -0.547,-0.703 -0.907,-0.703 -0.578,0 -0.968,0.359 -1.171,0.64 -0.047,-0.484 -0.454,-0.64 -0.75,-0.64 -0.297,0 -0.454,0.219 -0.547,0.375 -0.157,0.265 -0.25,0.656 -0.25,0.703 0,0.078 0.093,0.078 0.125,0.078 0.093,0 0.093,-0.016 0.14,-0.203 0.11,-0.406 0.25,-0.75 0.516,-0.75 0.187,0 0.234,0.156 0.234,0.344 0,0.125 -0.062,0.39 -0.125,0.578 -0.047,0.187 -0.109,0.469 -0.14,0.625 l -0.235,0.89 c -0.015,0.094 -0.062,0.266 -0.062,0.282 0,0.156 0.125,0.218 0.234,0.218 0.125,0 0.235,-0.078 0.281,-0.14 0.032,-0.063 0.079,-0.297 0.125,-0.438 0.032,-0.125 0.11,-0.453 0.141,-0.625 0.047,-0.156 0.094,-0.312 0.125,-0.468 0.078,-0.282 0.094,-0.344 0.297,-0.625 0.187,-0.282 0.516,-0.641 1.047,-0.641 0.39,0 0.406,0.359 0.406,0.484 0,0.172 -0.016,0.266 -0.125,0.657 z"
         style="fill:#1f77b4;fill-opacity:1;fill-rule:nonzero;stroke:none"
         id="path124" /><path
         d="m 59.547,120.258 c 0,-0.766 -0.109,-1.969 -0.656,-3.11 -0.594,-1.218 -1.453,-1.875 -1.547,-1.875 -0.063,0 -0.11,0.047 -0.11,0.11 0,0.031 0,0.047 0.188,0.234 0.984,0.985 1.547,2.563 1.547,4.641 0,1.719 -0.36,3.469 -1.594,4.719 -0.141,0.125 -0.141,0.14 -0.141,0.171 0,0.063 0.047,0.11 0.11,0.11 0.094,0 1,-0.688 1.578,-1.953 0.516,-1.094 0.625,-2.203 0.625,-3.047 z"
         style="fill:#1f77b4;fill-opacity:1;fill-rule:nonzero;stroke:none"
         id="path126" /><path
         d="m 70.156,119.492 c 0.156,0 0.344,0 0.344,-0.187 0,-0.203 -0.188,-0.203 -0.328,-0.203 h -5.969 c -0.141,0 -0.328,0 -0.328,0.203 0,0.187 0.187,0.187 0.328,0.187 z m 0.016,1.938 c 0.14,0 0.328,0 0.328,-0.203 0,-0.188 -0.188,-0.188 -0.344,-0.188 h -5.953 c -0.141,0 -0.328,0 -0.328,0.188 0,0.203 0.187,0.203 0.328,0.203 z"
         style="fill:#1f77b4;fill-opacity:1;fill-rule:nonzero;stroke:none"
         id="path128" /><path
         d="m 80.391,120.461 c 0.171,0 0.359,0 0.359,-0.203 0,-0.188 -0.188,-0.188 -0.359,-0.188 H 75 c -0.172,0 -0.344,0 -0.344,0.188 0,0.203 0.172,0.203 0.344,0.203 z"
         style="fill:#1f77b4;fill-opacity:1;fill-rule:nonzero;stroke:none"
         id="path130" /><path
         d="m 82.453,122.164 c -0.031,0.156 -0.094,0.391 -0.094,0.438 0,0.171 0.141,0.265 0.297,0.265 0.125,0 0.297,-0.078 0.375,-0.281 0,-0.016 0.125,-0.484 0.188,-0.734 l 0.219,-0.891 c 0.046,-0.234 0.109,-0.453 0.171,-0.672 0.032,-0.172 0.11,-0.469 0.125,-0.5 0.141,-0.312 0.672,-1.219 1.625,-1.219 0.453,0 0.532,0.375 0.532,0.703 0,0.25 -0.063,0.532 -0.141,0.829 l -0.281,1.156 -0.203,0.75 c -0.032,0.203 -0.125,0.547 -0.125,0.594 0,0.171 0.14,0.265 0.281,0.265 0.312,0 0.375,-0.25 0.453,-0.562 0.141,-0.563 0.516,-2.016 0.594,-2.407 0.031,-0.125 0.562,-1.328 1.656,-1.328 0.422,0 0.531,0.344 0.531,0.703 0,0.563 -0.422,1.704 -0.625,2.235 -0.078,0.234 -0.125,0.344 -0.125,0.547 0,0.468 0.344,0.812 0.813,0.812 0.937,0 1.312,-1.453 1.312,-1.531 0,-0.109 -0.093,-0.109 -0.125,-0.109 -0.094,0 -0.094,0.031 -0.14,0.187 -0.157,0.531 -0.469,1.234 -1.016,1.234 -0.172,0 -0.25,-0.093 -0.25,-0.328 0,-0.25 0.094,-0.484 0.188,-0.703 0.187,-0.531 0.609,-1.625 0.609,-2.203 0,-0.641 -0.406,-1.062 -1.156,-1.062 -0.735,0 -1.25,0.437 -1.625,0.968 0,-0.125 -0.032,-0.468 -0.313,-0.703 -0.25,-0.219 -0.562,-0.265 -0.812,-0.265 -0.907,0 -1.391,0.64 -1.563,0.875 -0.047,-0.579 -0.469,-0.875 -0.922,-0.875 -0.453,0 -0.64,0.39 -0.734,0.562 -0.172,0.359 -0.297,0.938 -0.297,0.969 0,0.109 0.094,0.109 0.109,0.109 0.11,0 0.11,-0.015 0.172,-0.234 0.172,-0.703 0.375,-1.188 0.735,-1.188 0.156,0 0.297,0.078 0.297,0.453 0,0.219 -0.032,0.329 -0.157,0.844 z"
         style="fill:#1f77b4;fill-opacity:1;fill-rule:nonzero;stroke:none"
         id="path132" /><path
         d="m 95.012,118.992 c 0.015,-0.047 0.031,-0.109 0.031,-0.172 0,-0.172 -0.109,-0.265 -0.281,-0.265 -0.094,0 -0.375,0.062 -0.407,0.422 -0.187,-0.36 -0.531,-0.625 -0.937,-0.625 -1.125,0 -2.359,1.39 -2.359,2.828 0,0.984 0.593,1.578 1.312,1.578 0.594,0 1.063,-0.469 1.156,-0.578 l 0.016,0.015 c -0.203,0.875 -0.328,1.297 -0.328,1.313 -0.047,0.094 -0.375,1.078 -1.438,1.078 -0.187,0 -0.515,-0.016 -0.797,-0.109 0.297,-0.079 0.407,-0.344 0.407,-0.516 0,-0.156 -0.11,-0.344 -0.375,-0.344 -0.219,0 -0.532,0.172 -0.532,0.578 0,0.407 0.36,0.61 1.313,0.61 1.25,0 1.969,-0.782 2.125,-1.375 z m -1.282,2.485 c -0.062,0.265 -0.296,0.515 -0.515,0.703 -0.203,0.172 -0.516,0.359 -0.813,0.359 -0.5,0 -0.64,-0.516 -0.64,-0.922 0,-0.469 0.281,-1.656 0.562,-2.156 0.266,-0.484 0.688,-0.891 1.11,-0.891 0.656,0 0.796,0.813 0.796,0.86 0,0.047 -0.015,0.109 -0.031,0.14 z"
         style="fill:#1f77b4;fill-opacity:1;fill-rule:nonzero;stroke:none"
         id="path134" /><path
         d="m 98.012,115.945 c 0,0 0,-0.109 -0.141,-0.109 -0.219,0 -0.953,0.078 -1.219,0.109 -0.078,0 -0.187,0.016 -0.187,0.203 0,0.11 0.109,0.11 0.25,0.11 0.484,0 0.5,0.094 0.5,0.172 l -0.031,0.203 -1.266,4.984 c -0.031,0.11 -0.047,0.172 -0.047,0.328 0,0.578 0.438,0.922 0.906,0.922 0.328,0 0.578,-0.203 0.75,-0.562 0.172,-0.375 0.297,-0.953 0.297,-0.969 0,-0.109 -0.094,-0.109 -0.125,-0.109 -0.094,0 -0.109,0.046 -0.125,0.187 -0.172,0.641 -0.359,1.234 -0.765,1.234 -0.297,0 -0.297,-0.312 -0.297,-0.453 0,-0.25 0.015,-0.297 0.062,-0.484 z"
         style="fill:#1f77b4;fill-opacity:1;fill-rule:nonzero;stroke:none"
         id="path136" /><path
         d="m 102.488,119.023 c -0.265,0.016 -0.468,0.235 -0.468,0.454 0,0.14 0.093,0.296 0.312,0.296 0.219,0 0.453,-0.171 0.453,-0.562 0,-0.453 -0.422,-0.859 -1.187,-0.859 -1.313,0 -1.688,1.015 -1.688,1.453 0,0.781 0.735,0.922 1.031,0.984 0.516,0.109 1.032,0.219 1.032,0.766 0,0.25 -0.219,1.093 -1.422,1.093 -0.141,0 -0.906,0 -1.141,-0.531 0.391,0.047 0.641,-0.25 0.641,-0.531 0,-0.219 -0.172,-0.344 -0.375,-0.344 -0.266,0 -0.563,0.203 -0.563,0.656 0,0.563 0.578,0.969 1.422,0.969 1.625,0 2.016,-1.203 2.016,-1.656 0,-0.359 -0.188,-0.609 -0.313,-0.719 -0.265,-0.281 -0.562,-0.344 -1,-0.422 -0.359,-0.078 -0.75,-0.156 -0.75,-0.609 0,-0.281 0.235,-0.891 1.11,-0.891 0.25,0 0.75,0.078 0.89,0.453 z"
         style="fill:#1f77b4;fill-opacity:1;fill-rule:nonzero;stroke:none"
         id="path138" /><path
         d="m 106.098,116.523 c 0,-0.203 -0.141,-0.359 -0.36,-0.359 -0.281,0 -0.547,0.266 -0.547,0.531 0,0.188 0.141,0.36 0.375,0.36 0.235,0 0.532,-0.235 0.532,-0.532 z m -0.75,3.75 c 0.109,-0.281 0.109,-0.312 0.218,-0.578 0.079,-0.203 0.125,-0.343 0.125,-0.531 0,-0.437 -0.312,-0.812 -0.812,-0.812 -0.938,0 -1.313,1.453 -1.313,1.531 0,0.109 0.094,0.109 0.11,0.109 0.109,0 0.109,-0.031 0.156,-0.187 0.281,-0.938 0.672,-1.235 1.016,-1.235 0.078,0 0.25,0 0.25,0.313 0,0.219 -0.078,0.422 -0.11,0.531 -0.078,0.25 -0.531,1.406 -0.687,1.844 -0.11,0.25 -0.235,0.578 -0.235,0.797 0,0.468 0.344,0.812 0.813,0.812 0.937,0 1.312,-1.437 1.312,-1.531 0,-0.109 -0.093,-0.109 -0.125,-0.109 -0.093,0 -0.093,0.031 -0.14,0.187 -0.188,0.625 -0.516,1.234 -1.016,1.234 -0.172,0 -0.25,-0.093 -0.25,-0.328 0,-0.25 0.063,-0.39 0.297,-1 z"
         style="fill:#1f77b4;fill-opacity:1;fill-rule:nonzero;stroke:none"
         id="path140" /><path
         d="m 107.574,122.164 c -0.031,0.156 -0.094,0.391 -0.094,0.438 0,0.171 0.141,0.265 0.297,0.265 0.125,0 0.297,-0.078 0.375,-0.281 0,-0.016 0.125,-0.484 0.188,-0.734 l 0.219,-0.891 c 0.046,-0.234 0.109,-0.453 0.171,-0.672 0.032,-0.172 0.11,-0.469 0.125,-0.5 0.141,-0.312 0.672,-1.219 1.625,-1.219 0.454,0 0.532,0.375 0.532,0.703 0,0.61 -0.485,1.891 -0.641,2.313 -0.094,0.234 -0.109,0.359 -0.109,0.469 0,0.468 0.359,0.812 0.828,0.812 0.937,0 1.297,-1.453 1.297,-1.531 0,-0.109 -0.078,-0.109 -0.11,-0.109 -0.109,0 -0.109,0.031 -0.156,0.187 -0.203,0.672 -0.531,1.234 -1.016,1.234 -0.171,0 -0.234,-0.093 -0.234,-0.328 0,-0.25 0.078,-0.484 0.172,-0.703 0.187,-0.531 0.609,-1.625 0.609,-2.203 0,-0.656 -0.422,-1.062 -1.14,-1.062 -0.907,0 -1.391,0.64 -1.563,0.875 -0.047,-0.563 -0.453,-0.875 -0.922,-0.875 -0.453,0 -0.64,0.39 -0.734,0.562 -0.172,0.344 -0.297,0.938 -0.297,0.969 0,0.109 0.094,0.109 0.109,0.109 0.11,0 0.11,-0.015 0.172,-0.234 0.172,-0.703 0.375,-1.188 0.735,-1.188 0.187,0 0.297,0.125 0.297,0.453 0,0.219 -0.032,0.329 -0.157,0.844 z"
         style="fill:#1f77b4;fill-opacity:1;fill-rule:nonzero;stroke:none"
         id="path142" /><path
         d="m 115.98,125.148 c 0,-0.031 0,-0.046 -0.171,-0.218 -1.235,-1.25 -1.563,-3.141 -1.563,-4.672 0,-1.735 0.375,-3.469 1.609,-4.703 0.125,-0.125 0.125,-0.141 0.125,-0.172 0,-0.078 -0.031,-0.11 -0.093,-0.11 -0.11,0 -1,0.688 -1.594,1.954 -0.5,1.093 -0.625,2.203 -0.625,3.031 0,0.781 0.109,1.984 0.656,3.125 0.61,1.219 1.453,1.875 1.563,1.875 0.062,0 0.093,-0.031 0.093,-0.11 z"
         style="fill:#1f77b4;fill-opacity:1;fill-rule:nonzero;stroke:none"
         id="path144" /><path
         d="m 121.09,117.773 c 0,-0.656 -0.172,-2.046 -1.188,-2.046 -1.39,0 -2.922,2.812 -2.922,5.093 0,0.938 0.282,2.047 1.188,2.047 1.406,0 2.922,-2.859 2.922,-5.094 z m -3.063,1.36 c 0.172,-0.625 0.375,-1.422 0.782,-2.141 0.265,-0.484 0.625,-1.047 1.078,-1.047 0.484,0 0.547,0.641 0.547,1.203 0,0.5 -0.079,1 -0.313,1.985 z m 2,0.328 c -0.109,0.453 -0.312,1.297 -0.703,2.016 -0.344,0.687 -0.719,1.171 -1.156,1.171 -0.328,0 -0.531,-0.296 -0.531,-1.218 0,-0.422 0.062,-1 0.312,-1.969 z"
         style="fill:#1f77b4;fill-opacity:1;fill-rule:nonzero;stroke:none"
         id="path146" /><path
         d="m 123.203,119.629 c 0,-0.016 0.031,-0.109 0.031,-0.109 0,-0.047 -0.031,-0.11 -0.125,-0.11 -0.14,0 -0.718,0.063 -0.89,0.078 -0.047,0 -0.141,0.016 -0.141,0.157 0,0.093 0.094,0.093 0.172,0.093 0.344,0 0.344,0.063 0.344,0.11 0,0.047 -0.016,0.093 -0.032,0.156 l -0.874,3.437 c -0.016,0.079 -0.016,0.157 -0.016,0.219 0,0.453 0.39,0.656 0.719,0.656 0.171,0 0.39,-0.046 0.562,-0.359 0.156,-0.266 0.25,-0.672 0.25,-0.703 0,-0.094 -0.094,-0.094 -0.109,-0.094 -0.11,0 -0.125,0.047 -0.141,0.172 -0.094,0.344 -0.234,0.797 -0.531,0.797 -0.188,0 -0.234,-0.172 -0.234,-0.344 0,-0.078 0.015,-0.203 0.046,-0.281 z"
         style="fill:#1f77b4;fill-opacity:1;fill-rule:nonzero;stroke:none"
         id="path148" /><path
         d="m 127.168,120.258 c 0,-0.766 -0.109,-1.969 -0.656,-3.11 -0.594,-1.218 -1.453,-1.875 -1.547,-1.875 -0.063,0 -0.11,0.047 -0.11,0.11 0,0.031 0,0.047 0.188,0.234 0.984,0.985 1.547,2.563 1.547,4.641 0,1.719 -0.36,3.469 -1.594,4.719 -0.141,0.125 -0.141,0.14 -0.141,0.171 0,0.063 0.047,0.11 0.11,0.11 0.094,0 1,-0.688 1.578,-1.953 0.516,-1.094 0.625,-2.203 0.625,-3.047 z"
         style="fill:#1f77b4;fill-opacity:1;fill-rule:nonzero;stroke:none"
         id="path150" /><path
         d="m 150.711,119.039 h 1.672 c 0.125,0 0.484,0 0.484,-0.344 0,-0.234 -0.203,-0.234 -0.406,-0.234 h -2.781 c -0.203,0 -0.594,0 -1.032,0.469 -0.328,0.359 -0.609,0.843 -0.609,0.89 0,0.016 0,0.11 0.125,0.11 0.078,0 0.094,-0.047 0.156,-0.125 0.485,-0.766 1.063,-0.766 1.266,-0.766 h 0.828 l -0.969,3.203 c -0.047,0.11 -0.109,0.328 -0.109,0.36 0,0.109 0.078,0.281 0.297,0.281 0.328,0 0.375,-0.281 0.406,-0.438 z"
         style="fill:#d62728;fill-opacity:1;fill-rule:nonzero;stroke:none"
         id="path152" /><path
         d="m 153.973,119.629 c 0,-0.016 0.031,-0.109 0.031,-0.109 0,-0.047 -0.031,-0.11 -0.125,-0.11 -0.141,0 -0.719,0.063 -0.891,0.078 -0.047,0 -0.156,0.016 -0.156,0.157 0,0.093 0.109,0.093 0.188,0.093 0.328,0 0.328,0.063 0.328,0.11 0,0.047 -0.063,0.328 -0.11,0.484 l -0.156,0.641 c -0.062,0.25 -0.437,1.765 -0.453,1.859 -0.047,0.172 -0.047,0.266 -0.047,0.344 0,0.703 0.453,1.14 1.031,1.14 0.875,0 1.797,-0.937 1.797,-1.968 0,-0.813 -0.562,-1.172 -1.047,-1.172 -0.359,0 -0.672,0.203 -0.875,0.39 z m -0.36,4.5 c -0.328,0 -0.531,-0.297 -0.531,-0.719 0,-0.25 0.063,-0.484 0.266,-1.281 0.031,-0.125 0.031,-0.141 0.172,-0.297 0.265,-0.297 0.578,-0.453 0.828,-0.453 0.265,0 0.5,0.203 0.5,0.672 0,0.281 -0.141,1 -0.36,1.406 -0.172,0.344 -0.515,0.672 -0.875,0.672 z"
         style="fill:#d62728;fill-opacity:1;fill-rule:nonzero;stroke:none"
         id="path154" /><path
         d="m 158.57,121.598 c -0.14,-0.235 -0.375,-0.422 -0.718,-0.422 -0.891,0 -1.797,0.984 -1.797,1.984 0,0.688 0.453,1.156 1.062,1.156 0.375,0 0.703,-0.203 0.985,-0.484 0.125,0.422 0.531,0.484 0.718,0.484 0.25,0 0.422,-0.14 0.547,-0.359 0.156,-0.281 0.25,-0.672 0.25,-0.703 0,-0.094 -0.094,-0.094 -0.109,-0.094 -0.11,0 -0.11,0.031 -0.156,0.219 -0.094,0.344 -0.219,0.75 -0.516,0.75 -0.172,0 -0.234,-0.156 -0.234,-0.344 0,-0.109 0.062,-0.375 0.109,-0.547 0.047,-0.187 0.125,-0.468 0.156,-0.625 l 0.141,-0.531 c 0.047,-0.187 0.125,-0.516 0.125,-0.547 0,-0.156 -0.125,-0.219 -0.235,-0.219 -0.125,0 -0.281,0.079 -0.328,0.282 z m -0.437,1.781 c -0.047,0.203 -0.203,0.344 -0.36,0.469 -0.062,0.062 -0.343,0.281 -0.64,0.281 -0.266,0 -0.516,-0.188 -0.516,-0.672 0,-0.375 0.203,-1.141 0.375,-1.422 0.313,-0.562 0.672,-0.656 0.86,-0.656 0.484,0 0.625,0.531 0.625,0.609 0,0.016 -0.016,0.078 -0.016,0.094 z"
         style="fill:#d62728;fill-opacity:1;fill-rule:nonzero;stroke:none"
         id="path156" /><path
         d="m 163,121.582 c -0.25,0.047 -0.344,0.234 -0.344,0.391 0,0.187 0.141,0.265 0.266,0.265 0.156,0 0.39,-0.109 0.39,-0.453 0,-0.469 -0.531,-0.609 -0.906,-0.609 -1.047,0 -2.015,0.969 -2.015,1.937 0,0.594 0.406,1.203 1.281,1.203 1.187,0 1.734,-0.687 1.734,-0.781 0,-0.047 -0.062,-0.125 -0.125,-0.125 -0.031,0 -0.047,0.016 -0.109,0.078 -0.547,0.641 -1.36,0.641 -1.484,0.641 -0.5,0 -0.719,-0.344 -0.719,-0.781 0,-0.188 0.093,-0.953 0.453,-1.438 0.266,-0.344 0.625,-0.531 0.984,-0.531 0.094,0 0.422,0.016 0.594,0.203 z"
         style="fill:#d62728;fill-opacity:1;fill-rule:nonzero;stroke:none"
         id="path158" /><path
         d="m 165.703,119.629 c 0,-0.016 0.016,-0.109 0.016,-0.109 0,-0.047 -0.016,-0.11 -0.11,-0.11 -0.14,0 -0.718,0.063 -0.89,0.078 -0.047,0 -0.157,0.016 -0.157,0.157 0,0.093 0.11,0.093 0.188,0.093 0.328,0 0.328,0.063 0.328,0.11 0,0.047 -0.016,0.093 -0.016,0.156 l -0.984,3.937 c -0.047,0.125 -0.047,0.141 -0.047,0.157 0,0.109 0.094,0.218 0.25,0.218 0.188,0 0.266,-0.125 0.313,-0.281 0.015,-0.031 0.312,-1.265 0.344,-1.359 0.5,0.047 0.89,0.219 0.89,0.578 0,0.031 0,0.062 -0.016,0.141 -0.031,0.093 -0.031,0.14 -0.031,0.218 0,0.485 0.407,0.703 0.75,0.703 0.672,0 0.875,-1.046 0.875,-1.062 0,-0.094 -0.078,-0.094 -0.109,-0.094 -0.094,0 -0.109,0.047 -0.141,0.172 -0.078,0.297 -0.265,0.797 -0.609,0.797 -0.188,0 -0.25,-0.172 -0.25,-0.359 0,-0.125 0,-0.141 0.047,-0.313 0.015,-0.031 0.031,-0.141 0.031,-0.219 0,-0.625 -0.828,-0.718 -1.125,-0.734 0.203,-0.125 0.453,-0.359 0.578,-0.469 0.36,-0.328 0.703,-0.656 1.094,-0.656 0.078,0 0.172,0.016 0.234,0.094 -0.297,0.047 -0.359,0.281 -0.359,0.39 0,0.141 0.109,0.25 0.265,0.25 0.204,0 0.407,-0.156 0.407,-0.437 0,-0.235 -0.172,-0.5 -0.531,-0.5 -0.407,0 -0.766,0.297 -1.126,0.625 -0.296,0.265 -0.515,0.484 -0.812,0.609 z"
         style="fill:#d62728;fill-opacity:1;fill-rule:nonzero;stroke:none"
         id="path160" /><path
         d="m 171.902,119.629 c 0,-0.016 0.016,-0.109 0.016,-0.109 0,-0.047 -0.016,-0.11 -0.109,-0.11 -0.141,0 -0.719,0.063 -0.891,0.078 -0.047,0 -0.156,0.016 -0.156,0.157 0,0.093 0.109,0.093 0.187,0.093 0.328,0 0.328,0.063 0.328,0.11 0,0.047 0,0.093 -0.015,0.156 l -0.407,1.594 c -0.14,-0.235 -0.375,-0.422 -0.718,-0.422 -0.891,0 -1.797,0.984 -1.797,1.984 0,0.688 0.453,1.156 1.062,1.156 0.375,0 0.703,-0.203 0.985,-0.484 0.125,0.422 0.531,0.484 0.718,0.484 0.25,0 0.422,-0.14 0.547,-0.359 0.157,-0.281 0.25,-0.672 0.25,-0.703 0,-0.094 -0.093,-0.094 -0.109,-0.094 -0.109,0 -0.109,0.031 -0.156,0.219 -0.094,0.344 -0.219,0.75 -0.516,0.75 -0.172,0 -0.234,-0.156 -0.234,-0.344 0,-0.125 0.015,-0.187 0.047,-0.281 z m -1.484,3.75 c -0.047,0.203 -0.203,0.344 -0.359,0.469 -0.063,0.062 -0.344,0.281 -0.641,0.281 -0.266,0 -0.516,-0.188 -0.516,-0.672 0,-0.375 0.203,-1.141 0.375,-1.422 0.313,-0.562 0.672,-0.656 0.86,-0.656 0.484,0 0.625,0.531 0.625,0.609 0,0.016 -0.016,0.078 -0.016,0.094 z"
         style="fill:#d62728;fill-opacity:1;fill-rule:nonzero;stroke:none"
         id="path162" /><path
         d="m 173.707,122.848 c 0,-0.047 0.172,-0.672 0.172,-0.703 0.016,-0.063 0.219,-0.407 0.453,-0.579 0.063,-0.046 0.25,-0.187 0.563,-0.187 0.062,0 0.234,0 0.375,0.094 -0.219,0.062 -0.297,0.265 -0.297,0.39 0,0.141 0.109,0.25 0.265,0.25 0.172,0 0.391,-0.125 0.391,-0.422 0,-0.359 -0.375,-0.515 -0.734,-0.515 -0.36,0 -0.672,0.156 -0.985,0.5 -0.125,-0.422 -0.547,-0.5 -0.719,-0.5 -0.25,0 -0.421,0.172 -0.546,0.359 -0.157,0.266 -0.25,0.672 -0.25,0.719 0,0.078 0.093,0.078 0.125,0.078 0.093,0 0.093,-0.016 0.14,-0.203 0.11,-0.422 0.25,-0.75 0.516,-0.75 0.187,0 0.234,0.156 0.234,0.344 0,0.125 -0.062,0.39 -0.125,0.578 -0.047,0.187 -0.109,0.469 -0.14,0.625 l -0.235,0.89 c -0.015,0.094 -0.062,0.266 -0.062,0.282 0,0.156 0.125,0.218 0.234,0.218 0.109,0 0.25,-0.062 0.297,-0.187 0.016,-0.047 0.094,-0.359 0.141,-0.531 z"
         style="fill:#d62728;fill-opacity:1;fill-rule:nonzero;stroke:none"
         id="path164" /><path
         d="m 178.246,119.895 c 0,-0.11 -0.094,-0.266 -0.281,-0.266 -0.188,0 -0.391,0.187 -0.391,0.391 0,0.109 0.078,0.265 0.281,0.265 0.188,0 0.391,-0.203 0.391,-0.39 z m -1.422,3.546 c -0.031,0.094 -0.062,0.172 -0.062,0.297 0,0.328 0.265,0.578 0.656,0.578 0.687,0 1,-0.953 1,-1.062 0,-0.094 -0.094,-0.094 -0.109,-0.094 -0.094,0 -0.11,0.047 -0.141,0.125 -0.156,0.563 -0.453,0.844 -0.734,0.844 -0.141,0 -0.172,-0.094 -0.172,-0.25 0,-0.156 0.047,-0.281 0.109,-0.438 0.078,-0.187 0.156,-0.375 0.219,-0.562 0.062,-0.172 0.328,-0.797 0.344,-0.891 0.031,-0.062 0.046,-0.14 0.046,-0.218 0,-0.329 -0.281,-0.594 -0.656,-0.594 -0.703,0 -1.015,0.953 -1.015,1.078 0,0.078 0.093,0.078 0.125,0.078 0.093,0 0.093,-0.031 0.125,-0.109 0.171,-0.594 0.484,-0.844 0.734,-0.844 0.109,0 0.172,0.047 0.172,0.234 0,0.172 -0.031,0.266 -0.203,0.703 z"
         style="fill:#d62728;fill-opacity:1;fill-rule:nonzero;stroke:none"
         id="path166" /><path
         d="m 182.516,121.723 c 0,-0.547 -0.328,-0.547 -0.344,-0.547 -0.188,0 -0.375,0.187 -0.375,0.375 0,0.109 0.062,0.172 0.109,0.203 0.125,0.109 0.266,0.281 0.266,0.562 0,0.313 -0.469,1.813 -1.297,1.813 -0.563,0 -0.563,-0.5 -0.563,-0.625 0,-0.313 0.126,-0.703 0.391,-1.359 0.047,-0.141 0.094,-0.25 0.094,-0.36 0,-0.375 -0.313,-0.609 -0.656,-0.609 -0.703,0 -1.016,0.953 -1.016,1.078 0,0.078 0.094,0.078 0.125,0.078 0.094,0 0.094,-0.031 0.125,-0.109 0.156,-0.563 0.453,-0.844 0.734,-0.844 0.125,0 0.172,0.078 0.172,0.234 0,0.172 -0.047,0.313 -0.125,0.469 -0.297,0.781 -0.375,1.078 -0.375,1.328 0,0.688 0.547,0.906 1.078,0.906 1.172,0 1.657,-2.015 1.657,-2.593 z"
         style="fill:#d62728;fill-opacity:1;fill-rule:nonzero;stroke:none"
         id="path168" /><path
         d="m 184.598,122.66 c 0.187,0 0.75,-0.015 1.125,-0.14 0.515,-0.188 0.609,-0.516 0.609,-0.719 0,-0.391 -0.391,-0.625 -0.859,-0.625 -0.844,0 -1.969,0.64 -1.969,1.844 0,0.703 0.437,1.296 1.25,1.296 1.187,0 1.734,-0.687 1.734,-0.781 0,-0.047 -0.062,-0.125 -0.125,-0.125 -0.031,0 -0.047,0.016 -0.109,0.078 -0.547,0.641 -1.359,0.641 -1.484,0.641 -0.422,0 -0.704,-0.281 -0.704,-0.844 0,-0.094 0,-0.234 0.094,-0.625 z m -0.391,-0.187 c 0.297,-1.016 1.063,-1.094 1.266,-1.094 0.297,0 0.562,0.156 0.562,0.422 0,0.672 -1.187,0.672 -1.484,0.672 z"
         style="fill:#d62728;fill-opacity:1;fill-rule:nonzero;stroke:none"
         id="path170" /><path
         d="m 190.609,125.148 c 0,-0.031 0,-0.046 -0.171,-0.218 -1.235,-1.25 -1.563,-3.141 -1.563,-4.672 0,-1.735 0.375,-3.469 1.609,-4.703 0.125,-0.125 0.125,-0.141 0.125,-0.172 0,-0.078 -0.031,-0.11 -0.093,-0.11 -0.11,0 -1,0.688 -1.594,1.954 -0.5,1.093 -0.625,2.203 -0.625,3.031 0,0.781 0.109,1.984 0.656,3.125 0.609,1.219 1.453,1.875 1.563,1.875 0.062,0 0.093,-0.031 0.093,-0.11 z"
         style="fill:#d62728;fill-opacity:1;fill-rule:nonzero;stroke:none"
         id="path172" /><path
         d="m 194.121,119.039 h 1.672 c 0.125,0 0.484,0 0.484,-0.344 0,-0.234 -0.203,-0.234 -0.406,-0.234 h -2.781 c -0.203,0 -0.594,0 -1.031,0.469 -0.329,0.359 -0.61,0.843 -0.61,0.89 0,0.016 0,0.11 0.125,0.11 0.078,0 0.094,-0.047 0.156,-0.125 0.485,-0.766 1.063,-0.766 1.266,-0.766 h 0.828 l -0.969,3.203 c -0.046,0.11 -0.109,0.328 -0.109,0.36 0,0.109 0.078,0.281 0.297,0.281 0.328,0 0.375,-0.281 0.406,-0.438 z"
         style="fill:#d62728;fill-opacity:1;fill-rule:nonzero;stroke:none"
         id="path174" /><path
         d="m 198.57,123.691 c -0.047,0.141 -0.109,0.375 -0.109,0.407 0,0.156 0.125,0.218 0.234,0.218 0.141,0 0.25,-0.078 0.282,-0.14 0.031,-0.063 0.093,-0.297 0.125,-0.438 0.031,-0.125 0.109,-0.453 0.156,-0.625 0.031,-0.156 0.078,-0.312 0.109,-0.468 0.078,-0.297 0.078,-0.313 0.219,-0.532 0.219,-0.343 0.578,-0.734 1.109,-0.734 0.391,0 0.422,0.312 0.422,0.484 0,0.422 -0.297,1.188 -0.422,1.485 -0.062,0.203 -0.093,0.265 -0.093,0.375 0,0.375 0.296,0.593 0.656,0.593 0.703,0 1,-0.953 1,-1.062 0,-0.094 -0.078,-0.094 -0.11,-0.094 -0.093,0 -0.093,0.047 -0.125,0.125 -0.156,0.563 -0.468,0.844 -0.734,0.844 -0.156,0 -0.187,-0.094 -0.187,-0.25 0,-0.156 0.046,-0.25 0.171,-0.563 0.079,-0.218 0.36,-0.953 0.36,-1.343 0,-0.11 0,-0.407 -0.25,-0.61 -0.125,-0.078 -0.328,-0.187 -0.656,-0.187 -0.625,0 -1,0.422 -1.235,0.703 -0.047,-0.594 -0.547,-0.703 -0.906,-0.703 -0.578,0 -0.969,0.359 -1.172,0.64 -0.047,-0.484 -0.453,-0.64 -0.75,-0.64 -0.297,0 -0.453,0.219 -0.547,0.375 -0.156,0.265 -0.25,0.656 -0.25,0.703 0,0.078 0.094,0.078 0.125,0.078 0.094,0 0.094,-0.016 0.141,-0.203 0.109,-0.406 0.25,-0.75 0.515,-0.75 0.188,0 0.235,0.156 0.235,0.344 0,0.125 -0.063,0.39 -0.125,0.578 -0.047,0.187 -0.11,0.469 -0.141,0.625 l -0.234,0.89 c -0.016,0.094 -0.063,0.266 -0.063,0.282 0,0.156 0.125,0.218 0.235,0.218 0.125,0 0.234,-0.078 0.281,-0.14 0.031,-0.063 0.078,-0.297 0.125,-0.438 0.031,-0.125 0.109,-0.453 0.141,-0.625 0.046,-0.156 0.093,-0.312 0.125,-0.468 0.078,-0.282 0.093,-0.344 0.296,-0.625 0.188,-0.282 0.516,-0.641 1.047,-0.641 0.391,0 0.407,0.359 0.407,0.484 0,0.172 -0.016,0.266 -0.125,0.657 z"
         style="fill:#d62728;fill-opacity:1;fill-rule:nonzero;stroke:none"
         id="path176" /><path
         d="m 205.984,120.258 c 0,-0.766 -0.109,-1.969 -0.656,-3.11 -0.594,-1.218 -1.453,-1.875 -1.547,-1.875 -0.062,0 -0.109,0.047 -0.109,0.11 0,0.031 0,0.047 0.187,0.234 0.985,0.985 1.547,2.563 1.547,4.641 0,1.719 -0.359,3.469 -1.594,4.719 -0.14,0.125 -0.14,0.14 -0.14,0.171 0,0.063 0.047,0.11 0.109,0.11 0.094,0 1,-0.688 1.578,-1.953 0.516,-1.094 0.625,-2.203 0.625,-3.047 z"
         style="fill:#d62728;fill-opacity:1;fill-rule:nonzero;stroke:none"
         id="path178" /><path
         d="m 216.598,119.492 c 0.156,0 0.343,0 0.343,-0.187 0,-0.203 -0.187,-0.203 -0.328,-0.203 h -5.968 c -0.141,0 -0.329,0 -0.329,0.203 0,0.187 0.188,0.187 0.329,0.187 z m 0.015,1.938 c 0.141,0 0.328,0 0.328,-0.203 0,-0.188 -0.187,-0.188 -0.343,-0.188 h -5.953 c -0.141,0 -0.329,0 -0.329,0.188 0,0.203 0.188,0.203 0.329,0.203 z"
         style="fill:#d62728;fill-opacity:1;fill-rule:nonzero;stroke:none"
         id="path180" /><path
         d="m 226.828,120.461 c 0.172,0 0.36,0 0.36,-0.203 0,-0.188 -0.188,-0.188 -0.36,-0.188 h -5.39 c -0.172,0 -0.344,0 -0.344,0.188 0,0.203 0.172,0.203 0.344,0.203 z"
         style="fill:#d62728;fill-opacity:1;fill-rule:nonzero;stroke:none"
         id="path182" /><path
         d="m 228.891,122.164 c -0.032,0.156 -0.094,0.391 -0.094,0.438 0,0.171 0.141,0.265 0.297,0.265 0.125,0 0.297,-0.078 0.375,-0.281 0,-0.016 0.125,-0.484 0.187,-0.734 l 0.219,-0.891 c 0.047,-0.234 0.109,-0.453 0.172,-0.672 0.031,-0.172 0.109,-0.469 0.125,-0.5 0.14,-0.312 0.672,-1.219 1.625,-1.219 0.453,0 0.531,0.375 0.531,0.703 0,0.25 -0.062,0.532 -0.14,0.829 l -0.282,1.156 -0.203,0.75 c -0.031,0.203 -0.125,0.547 -0.125,0.594 0,0.171 0.141,0.265 0.281,0.265 0.313,0 0.375,-0.25 0.453,-0.562 0.141,-0.563 0.516,-2.016 0.594,-2.407 0.032,-0.125 0.563,-1.328 1.656,-1.328 0.422,0 0.532,0.344 0.532,0.703 0,0.563 -0.422,1.704 -0.625,2.235 -0.078,0.234 -0.125,0.344 -0.125,0.547 0,0.468 0.344,0.812 0.812,0.812 0.938,0 1.313,-1.453 1.313,-1.531 0,-0.109 -0.094,-0.109 -0.125,-0.109 -0.094,0 -0.094,0.031 -0.141,0.187 -0.156,0.531 -0.469,1.234 -1.015,1.234 -0.172,0 -0.25,-0.093 -0.25,-0.328 0,-0.25 0.093,-0.484 0.187,-0.703 0.187,-0.531 0.609,-1.625 0.609,-2.203 0,-0.641 -0.406,-1.062 -1.156,-1.062 -0.734,0 -1.25,0.437 -1.625,0.968 0,-0.125 -0.031,-0.468 -0.312,-0.703 -0.25,-0.219 -0.563,-0.265 -0.813,-0.265 -0.906,0 -1.39,0.64 -1.562,0.875 -0.047,-0.579 -0.469,-0.875 -0.922,-0.875 -0.453,0 -0.641,0.39 -0.735,0.562 -0.171,0.359 -0.297,0.938 -0.297,0.969 0,0.109 0.094,0.109 0.11,0.109 0.109,0 0.109,-0.015 0.172,-0.234 0.172,-0.703 0.375,-1.188 0.734,-1.188 0.156,0 0.297,0.078 0.297,0.453 0,0.219 -0.031,0.329 -0.156,0.844 z"
         style="fill:#d62728;fill-opacity:1;fill-rule:nonzero;stroke:none"
         id="path184" /><path
         d="m 241.449,118.992 c 0.016,-0.047 0.031,-0.109 0.031,-0.172 0,-0.172 -0.109,-0.265 -0.281,-0.265 -0.094,0 -0.375,0.062 -0.406,0.422 -0.188,-0.36 -0.531,-0.625 -0.938,-0.625 -1.125,0 -2.359,1.39 -2.359,2.828 0,0.984 0.594,1.578 1.313,1.578 0.593,0 1.062,-0.469 1.156,-0.578 l 0.015,0.015 c -0.203,0.875 -0.328,1.297 -0.328,1.313 -0.047,0.094 -0.375,1.078 -1.437,1.078 -0.188,0 -0.516,-0.016 -0.797,-0.109 0.297,-0.079 0.406,-0.344 0.406,-0.516 0,-0.156 -0.109,-0.344 -0.375,-0.344 -0.219,0 -0.531,0.172 -0.531,0.578 0,0.407 0.359,0.61 1.312,0.61 1.25,0 1.969,-0.782 2.125,-1.375 z m -1.281,2.485 c -0.063,0.265 -0.297,0.515 -0.516,0.703 -0.203,0.172 -0.515,0.359 -0.812,0.359 -0.5,0 -0.641,-0.516 -0.641,-0.922 0,-0.469 0.281,-1.656 0.563,-2.156 0.265,-0.484 0.687,-0.891 1.109,-0.891 0.656,0 0.797,0.813 0.797,0.86 0,0.047 -0.016,0.109 -0.031,0.14 z"
         style="fill:#d62728;fill-opacity:1;fill-rule:nonzero;stroke:none"
         id="path186" /><path
         d="m 244.453,115.945 c 0,0 0,-0.109 -0.141,-0.109 -0.218,0 -0.953,0.078 -1.218,0.109 -0.078,0 -0.188,0.016 -0.188,0.203 0,0.11 0.11,0.11 0.25,0.11 0.485,0 0.5,0.094 0.5,0.172 l -0.031,0.203 -1.266,4.984 c -0.031,0.11 -0.047,0.172 -0.047,0.328 0,0.578 0.438,0.922 0.907,0.922 0.328,0 0.578,-0.203 0.75,-0.562 0.172,-0.375 0.297,-0.953 0.297,-0.969 0,-0.109 -0.094,-0.109 -0.125,-0.109 -0.094,0 -0.11,0.046 -0.125,0.187 -0.172,0.641 -0.36,1.234 -0.766,1.234 -0.297,0 -0.297,-0.312 -0.297,-0.453 0,-0.25 0.016,-0.297 0.063,-0.484 z"
         style="fill:#d62728;fill-opacity:1;fill-rule:nonzero;stroke:none"
         id="path188" /><path
         d="m 248.926,119.023 c -0.266,0.016 -0.469,0.235 -0.469,0.454 0,0.14 0.094,0.296 0.313,0.296 0.218,0 0.453,-0.171 0.453,-0.562 0,-0.453 -0.422,-0.859 -1.188,-0.859 -1.312,0 -1.687,1.015 -1.687,1.453 0,0.781 0.734,0.922 1.031,0.984 0.516,0.109 1.031,0.219 1.031,0.766 0,0.25 -0.219,1.093 -1.422,1.093 -0.14,0 -0.906,0 -1.14,-0.531 0.39,0.047 0.64,-0.25 0.64,-0.531 0,-0.219 -0.172,-0.344 -0.375,-0.344 -0.265,0 -0.562,0.203 -0.562,0.656 0,0.563 0.578,0.969 1.422,0.969 1.625,0 2.015,-1.203 2.015,-1.656 0,-0.359 -0.187,-0.609 -0.312,-0.719 -0.266,-0.281 -0.563,-0.344 -1,-0.422 -0.36,-0.078 -0.75,-0.156 -0.75,-0.609 0,-0.281 0.234,-0.891 1.109,-0.891 0.25,0 0.75,0.078 0.891,0.453 z"
         style="fill:#d62728;fill-opacity:1;fill-rule:nonzero;stroke:none"
         id="path190" /><path
         d="m 252.535,116.523 c 0,-0.203 -0.14,-0.359 -0.359,-0.359 -0.281,0 -0.547,0.266 -0.547,0.531 0,0.188 0.141,0.36 0.375,0.36 0.234,0 0.531,-0.235 0.531,-0.532 z m -0.75,3.75 c 0.11,-0.281 0.11,-0.312 0.219,-0.578 0.078,-0.203 0.125,-0.343 0.125,-0.531 0,-0.437 -0.313,-0.812 -0.813,-0.812 -0.937,0 -1.312,1.453 -1.312,1.531 0,0.109 0.094,0.109 0.109,0.109 0.11,0 0.11,-0.031 0.157,-0.187 0.281,-0.938 0.671,-1.235 1.015,-1.235 0.078,0 0.25,0 0.25,0.313 0,0.219 -0.078,0.422 -0.109,0.531 -0.078,0.25 -0.531,1.406 -0.688,1.844 -0.109,0.25 -0.234,0.578 -0.234,0.797 0,0.468 0.344,0.812 0.812,0.812 0.938,0 1.313,-1.437 1.313,-1.531 0,-0.109 -0.094,-0.109 -0.125,-0.109 -0.094,0 -0.094,0.031 -0.141,0.187 -0.187,0.625 -0.515,1.234 -1.015,1.234 -0.172,0 -0.25,-0.093 -0.25,-0.328 0,-0.25 0.062,-0.39 0.297,-1 z"
         style="fill:#d62728;fill-opacity:1;fill-rule:nonzero;stroke:none"
         id="path192" /><path
         d="m 254.012,122.164 c -0.032,0.156 -0.094,0.391 -0.094,0.438 0,0.171 0.141,0.265 0.297,0.265 0.125,0 0.297,-0.078 0.375,-0.281 0,-0.016 0.125,-0.484 0.187,-0.734 l 0.219,-0.891 c 0.047,-0.234 0.109,-0.453 0.172,-0.672 0.031,-0.172 0.109,-0.469 0.125,-0.5 0.141,-0.312 0.672,-1.219 1.625,-1.219 0.453,0 0.531,0.375 0.531,0.703 0,0.61 -0.484,1.891 -0.64,2.313 -0.094,0.234 -0.11,0.359 -0.11,0.469 0,0.468 0.36,0.812 0.828,0.812 0.938,0 1.297,-1.453 1.297,-1.531 0,-0.109 -0.078,-0.109 -0.109,-0.109 -0.11,0 -0.11,0.031 -0.156,0.187 -0.204,0.672 -0.532,1.234 -1.016,1.234 -0.172,0 -0.234,-0.093 -0.234,-0.328 0,-0.25 0.078,-0.484 0.171,-0.703 0.188,-0.531 0.61,-1.625 0.61,-2.203 0,-0.656 -0.422,-1.062 -1.141,-1.062 -0.906,0 -1.39,0.64 -1.562,0.875 -0.047,-0.563 -0.453,-0.875 -0.922,-0.875 -0.453,0 -0.641,0.39 -0.735,0.562 -0.171,0.344 -0.296,0.938 -0.296,0.969 0,0.109 0.093,0.109 0.109,0.109 0.109,0 0.109,-0.015 0.172,-0.234 0.172,-0.703 0.375,-1.188 0.734,-1.188 0.188,0 0.297,0.125 0.297,0.453 0,0.219 -0.031,0.329 -0.156,0.844 z"
         style="fill:#d62728;fill-opacity:1;fill-rule:nonzero;stroke:none"
         id="path194" /><path
         d="m 262.418,125.148 c 0,-0.031 0,-0.046 -0.172,-0.218 -1.234,-1.25 -1.562,-3.141 -1.562,-4.672 0,-1.735 0.375,-3.469 1.609,-4.703 0.125,-0.125 0.125,-0.141 0.125,-0.172 0,-0.078 -0.031,-0.11 -0.094,-0.11 -0.109,0 -1,0.688 -1.594,1.954 -0.5,1.093 -0.625,2.203 -0.625,3.031 0,0.781 0.11,1.984 0.657,3.125 0.609,1.219 1.453,1.875 1.562,1.875 0.063,0 0.094,-0.031 0.094,-0.11 z"
         style="fill:#d62728;fill-opacity:1;fill-rule:nonzero;stroke:none"
         id="path196" /><path
         d="m 267.527,117.773 c 0,-0.656 -0.172,-2.046 -1.187,-2.046 -1.391,0 -2.922,2.812 -2.922,5.093 0,0.938 0.281,2.047 1.187,2.047 1.407,0 2.922,-2.859 2.922,-5.094 z m -3.062,1.36 c 0.172,-0.625 0.375,-1.422 0.781,-2.141 0.266,-0.484 0.625,-1.047 1.078,-1.047 0.485,0 0.547,0.641 0.547,1.203 0,0.5 -0.078,1 -0.312,1.985 z m 2,0.328 c -0.11,0.453 -0.313,1.297 -0.703,2.016 -0.344,0.687 -0.719,1.171 -1.157,1.171 -0.328,0 -0.531,-0.296 -0.531,-1.218 0,-0.422 0.063,-1 0.313,-1.969 z"
         style="fill:#d62728;fill-opacity:1;fill-rule:nonzero;stroke:none"
         id="path198" /><path
         d="m 269.859,119.629 c 0,-0.016 0.016,-0.109 0.016,-0.109 0,-0.047 -0.016,-0.11 -0.109,-0.11 -0.141,0 -0.719,0.063 -0.891,0.078 -0.047,0 -0.156,0.016 -0.156,0.157 0,0.093 0.109,0.093 0.187,0.093 0.328,0 0.328,0.063 0.328,0.11 0,0.047 -0.015,0.093 -0.015,0.156 l -0.985,3.937 c -0.046,0.125 -0.046,0.141 -0.046,0.157 0,0.109 0.093,0.218 0.25,0.218 0.078,0 0.203,-0.031 0.281,-0.171 0.015,-0.047 0.078,-0.297 0.109,-0.438 L 269,123.082 c 0.016,-0.109 0.094,-0.375 0.109,-0.469 0.063,-0.265 0.063,-0.281 0.203,-0.5 0.235,-0.343 0.579,-0.734 1.126,-0.734 0.39,0 0.406,0.312 0.406,0.484 0,0.422 -0.297,1.188 -0.406,1.485 -0.079,0.203 -0.11,0.265 -0.11,0.375 0,0.375 0.313,0.593 0.656,0.593 0.704,0 1.016,-0.953 1.016,-1.062 0,-0.094 -0.094,-0.094 -0.125,-0.094 -0.094,0 -0.094,0.047 -0.125,0.125 -0.156,0.563 -0.469,0.844 -0.734,0.844 -0.157,0 -0.188,-0.094 -0.188,-0.25 0,-0.156 0.047,-0.25 0.172,-0.563 0.078,-0.218 0.359,-0.953 0.359,-1.343 0,-0.11 0,-0.407 -0.25,-0.61 -0.125,-0.078 -0.328,-0.187 -0.656,-0.187 -0.5,0 -0.875,0.281 -1.125,0.578 z"
         style="fill:#d62728;fill-opacity:1;fill-rule:nonzero;stroke:none"
         id="path200" /><path
         d="m 275.711,120.258 c 0,-0.766 -0.109,-1.969 -0.656,-3.11 -0.594,-1.218 -1.453,-1.875 -1.547,-1.875 -0.063,0 -0.11,0.047 -0.11,0.11 0,0.031 0,0.047 0.188,0.234 0.984,0.985 1.547,2.563 1.547,4.641 0,1.719 -0.36,3.469 -1.594,4.719 -0.141,0.125 -0.141,0.14 -0.141,0.171 0,0.063 0.047,0.11 0.11,0.11 0.094,0 1,-0.688 1.578,-1.953 0.516,-1.094 0.625,-2.203 0.625,-3.047 z"
         style="fill:#d62728;fill-opacity:1;fill-rule:nonzero;stroke:none"
         id="path202" /><g
         id="g204"
         transform="matrix(-0.364367,-1,1,-0.364367,0,0)"><path
           d="m -80.134,191.067 c 3.246,-0.055 6.467,-1.206 9.016,-3.218 2.55,-2.013 4.414,-4.876 5.219,-8.02 0.761,-2.957 0.587,-6.146 -0.489,-9.003 -1.076,-2.857 -3.052,-5.366 -5.571,-7.084 -2.522,-1.72 -5.58,-2.643 -8.633,-2.603 -3.051,0.041 -6.083,1.041 -8.558,2.827"
           style="fill:none;stroke:#000000;stroke-width:0.563744;stroke-linecap:round;stroke-linejoin:miter;stroke-miterlimit:4;stroke-dasharray:none;stroke-opacity:0.8"
           id="path206" /></g><g
         id="g208"
         transform="matrix(1,0.678736,-0.678736,1,0,0)"><path
           d="m 150.019,-71.152 -2.791,1.614 0.001,-3.227 z"
           style="fill:#000000;fill-opacity:1;fill-rule:evenodd;stroke:#000000;stroke-width:0.430254;stroke-linecap:butt;stroke-linejoin:miter;stroke-miterlimit:4;stroke-dasharray:none;stroke-opacity:1"
           id="path210" /></g><path
         d="m 178.551,4.852 h 1.672 c 0.125,0 0.484,0 0.484,-0.344 0,-0.235 -0.203,-0.235 -0.406,-0.235 h -2.781 c -0.204,0 -0.594,0 -1.032,0.469 -0.328,0.36 -0.609,0.844 -0.609,0.891 0,0.015 0,0.109 0.125,0.109 0.078,0 0.094,-0.047 0.156,-0.125 0.485,-0.765 1.063,-0.765 1.266,-0.765 h 0.828 l -0.969,3.203 c -0.047,0.109 -0.109,0.328 -0.109,0.359 0,0.109 0.078,0.281 0.297,0.281 0.328,0 0.375,-0.281 0.406,-0.437 z"
         style="fill:#000000;fill-opacity:1;fill-rule:nonzero;stroke:none"
         id="path212" /><path
         d="m 183,9.504 c -0.047,0.141 -0.109,0.375 -0.109,0.406 0,0.156 0.125,0.219 0.234,0.219 0.141,0 0.25,-0.078 0.281,-0.141 0.032,-0.062 0.094,-0.297 0.125,-0.437 0.031,-0.125 0.11,-0.453 0.157,-0.625 0.031,-0.156 0.078,-0.313 0.109,-0.469 0.078,-0.297 0.078,-0.312 0.219,-0.531 0.218,-0.344 0.578,-0.735 1.109,-0.735 0.391,0 0.422,0.313 0.422,0.485 0,0.422 -0.297,1.187 -0.422,1.484 -0.063,0.203 -0.094,0.266 -0.094,0.375 0,0.375 0.297,0.594 0.657,0.594 0.703,0 1,-0.953 1,-1.063 0,-0.093 -0.079,-0.093 -0.11,-0.093 -0.094,0 -0.094,0.047 -0.125,0.125 -0.156,0.562 -0.469,0.843 -0.734,0.843 -0.157,0 -0.188,-0.093 -0.188,-0.25 0,-0.156 0.047,-0.25 0.172,-0.562 0.078,-0.219 0.359,-0.953 0.359,-1.344 0,-0.109 0,-0.406 -0.25,-0.609 -0.124,-0.078 -0.328,-0.188 -0.656,-0.188 -0.625,0 -1,0.422 -1.234,0.703 -0.047,-0.593 -0.547,-0.703 -0.906,-0.703 -0.578,0 -0.969,0.36 -1.172,0.641 -0.047,-0.484 -0.453,-0.641 -0.75,-0.641 -0.297,0 -0.453,0.219 -0.547,0.375 -0.156,0.266 -0.25,0.657 -0.25,0.703 0,0.079 0.094,0.079 0.125,0.079 0.094,0 0.094,-0.016 0.14,-0.204 0.11,-0.406 0.25,-0.75 0.516,-0.75 0.188,0 0.234,0.157 0.234,0.344 0,0.125 -0.062,0.391 -0.124,0.578 -0.047,0.188 -0.11,0.469 -0.141,0.625 l -0.235,0.891 c -0.015,0.094 -0.062,0.266 -0.062,0.281 0,0.156 0.125,0.219 0.234,0.219 0.125,0 0.235,-0.078 0.282,-0.141 0.031,-0.062 0.078,-0.297 0.125,-0.437 0.031,-0.125 0.109,-0.453 0.14,-0.625 0.047,-0.156 0.094,-0.313 0.125,-0.469 0.078,-0.281 0.094,-0.344 0.297,-0.625 0.188,-0.281 0.516,-0.641 1.047,-0.641 0.391,0 0.406,0.36 0.406,0.485 0,0.172 -0.015,0.265 -0.125,0.656 z"
         style="fill:#000000;fill-opacity:1;fill-rule:nonzero;stroke:none"
         id="path214" /></g></g></svg>
