<?xml version="1.0" encoding="UTF-8" standalone="no"?>
<svg
   version="1.1"
   id="svg"
   x="0px"
   y="0px"
   viewBox="694 197 359 400"
   sodipodi:docname="readthedocs.svg"
   width="359"
   height="400"
   inkscape:version="1.1.2 (0a00cf5339, 2022-02-04)"
   xmlns:inkscape="http://www.inkscape.org/namespaces/inkscape"
   xmlns:sodipodi="http://sodipodi.sourceforge.net/DTD/sodipodi-0.dtd"
   xmlns="http://www.w3.org/2000/svg"
   xmlns:svg="http://www.w3.org/2000/svg">
  <defs
     id="defs1636" />
  <sodipodi:namedview
     id="namedview1634"
     pagecolor="#ffffff"
     bordercolor="#666666"
     borderopacity="1.0"
     inkscape:pageshadow="2"
     inkscape:pageopacity="0.0"
     inkscape:pagecheckerboard="0"
     showgrid="false"
     inkscape:zoom="0.5305"
     inkscape:cx="971.72479"
     inkscape:cy="200.75401"
     inkscape:window-width="1920"
     inkscape:window-height="1021"
     inkscape:window-x="0"
     inkscape:window-y="25"
     inkscape:window-maximized="1"
     inkscape:current-layer="svg" />
  <g
     id="logo"
     transform="matrix(0.55753644,0,0,0.55753644,68.308135,1050.1262)">
    <path
       style="fill:#32322a"
       d="m 1408.1,-1181.7 c -7.5,1 -12.7,7.8 -11.7,15.3 0.7,5.4 4.6,9.9 9.9,11.3 0,0 33.2,11 89.7,15.6 45.4,3.7 96.9,-3.2 96.9,-3.2 7.5,-0.2 13.5,-6.5 13.2,-14 -0.3,-7.5 -6.5,-13.5 -14,-13.2 -0.9,0 -1.8,0.1 -2.6,0.3 0,0 -50.4,6.2 -91.3,2.9 -54,-4.4 -83.4,-14.3 -83.4,-14.3 -2.2,-0.7 -4.5,-1 -6.7,-0.7 z m 0,-67.6 c -7.5,1 -12.7,7.8 -11.7,15.3 0.7,5.4 4.6,9.9 9.9,11.3 0,0 33.2,11 89.7,15.6 45.4,3.7 96.9,-3.2 96.9,-3.2 7.5,-0.2 13.5,-6.5 13.2,-14 -0.3,-7.5 -6.5,-13.5 -14,-13.2 -0.9,0 -1.8,0.1 -2.6,0.3 0,0 -50.4,6.2 -91.3,2.9 -54,-4.4 -83.4,-14.3 -83.4,-14.3 -2.2,-0.7 -4.5,-1 -6.7,-0.7 z m 0,-67.6 c -7.5,1 -12.7,7.8 -11.7,15.3 0.7,5.4 4.6,9.9 9.9,11.3 0,0 33.2,11 89.7,15.6 45.4,3.7 96.9,-3.2 96.9,-3.2 7.5,-0.2 13.5,-6.5 13.2,-14 -0.3,-7.5 -6.5,-13.5 -14,-13.2 -0.9,0 -1.8,0.1 -2.6,0.3 0,0 -50.4,6.2 -91.3,2.9 -54,-4.4 -83.4,-14.3 -83.4,-14.3 -2.2,-0.7 -4.5,-1 -6.7,-0.7 z m 0,-67.5 c -7.5,1 -12.7,7.8 -11.7,15.3 0.7,5.4 4.6,9.9 9.9,11.3 0,0 33.2,11 89.7,15.6 45.4,3.7 96.9,-3.2 96.9,-3.2 7.5,-0.2 13.5,-6.5 13.2,-14 -0.3,-7.5 -6.5,-13.5 -14,-13.2 -0.9,0 -1.8,0.1 -2.6,0.3 0,0 -50.4,6.2 -91.3,2.9 -54,-4.4 -83.4,-14.3 -83.4,-14.3 -2.2,-0.8 -4.5,-1 -6.7,-0.7 z m -94.7,-71.3 c -71,0.5 -97.5,22.3 -97.5,22.3 v 530.3 c 0,0 25.8,-22.3 109,-18.9 83.2,3.4 100.3,32.6 202.5,34.6 102.2,2.1 127.9,-15.7 127.9,-15.7 l 1.5,-540.6 c 0,0 -46,13 -135.5,13.7 -89.5,0.7 -111,-22.8 -193.2,-25.5 -5.1,-0.1 -10,-0.2 -14.7,-0.2 z m 59.4,34.6 c 0,0 43,14.2 122.5,18.2 67.2,3.3 134.5,-6.6 134.5,-6.6 V -929 c 0,0 -34.1,17.9 -119.3,11.8 -66,-4.7 -138.7,-29.7 -138.7,-29.7 z m -41.5,12.5 c 7.6,0 13.7,6.2 13.7,13.7 0,7.5 -6.2,13.7 -13.7,13.7 0,0 -22.3,0.1 -35.8,1.5 -22.8,2.3 -38.3,10.6 -38.3,10.6 -6.7,3.5 -15,1 -18.5,-5.7 -3.5,-6.7 -1,-15 5.7,-18.5 0,0 0,0 0,0 0,0 20.2,-10.7 48.4,-13.5 16.3,-1.7 38.5,-1.8 38.5,-1.8 z m -13.2,67.8 c 7.6,-0.2 13.3,0 13.3,0 7.5,0.9 12.9,7.8 12,15.3 -0.8,6.3 -5.7,11.2 -12,12 0,0 -22.3,0.1 -35.8,1.5 -22.8,2.3 -38.3,10.6 -38.3,10.6 -6.7,3.5 -15,0.9 -18.5,-5.8 -3.5,-6.7 -0.9,-15 5.8,-18.5 0,0 20.2,-10.7 48.4,-13.5 7.9,-0.9 17.5,-1.4 25.1,-1.6 z m 13.2,67.5 c 7.6,0 13.7,6.2 13.7,13.7 0,7.6 -6.2,13.7 -13.7,13.7 0,0 -22.3,-0.1 -35.8,1.2 -22.8,2.3 -38.3,10.6 -38.3,10.6 -6.7,3.5 -15,0.9 -18.5,-5.8 -3.5,-6.7 -0.9,-15 5.8,-18.5 0,0 20.2,-10.7 48.4,-13.5 16.2,-1.5 38.4,-1.4 38.4,-1.4 z"
       id="path1607" />
  </g>
</svg>
